<svg width="262" height="48" viewBox="0 0 262 48" fill="none" xmlns="http://www.w3.org/2000/svg">
<path d="M9.6 37V7.72H0.528V1.24H25.968V7.72H17.04V37H9.6ZM26.265 37V10.792H32.985V17.08L32.505 16.168C33.081 13.96 34.025 12.472 35.337 11.704C36.681 10.904 38.265 10.504 40.089 10.504H41.625V16.744H39.369C37.609 16.744 36.185 17.288 35.097 18.376C34.009 19.432 33.465 20.936 33.465 22.888V37H26.265ZM52.8926 37.576C51.0046 37.576 49.3726 37.272 47.9966 36.664C46.6206 36.056 45.5646 35.192 44.8286 34.072C44.0926 32.92 43.7246 31.56 43.7246 29.992C43.7246 28.52 44.0606 27.224 44.7326 26.104C45.4046 24.952 46.4286 23.992 47.8046 23.224C49.2126 22.456 50.9566 21.912 53.0366 21.592L61.0526 20.296V25.576L54.3326 26.776C53.3086 26.968 52.5246 27.304 51.9806 27.784C51.4366 28.232 51.1646 28.888 51.1646 29.752C51.1646 30.552 51.4686 31.176 52.0766 31.624C52.6846 32.072 53.4366 32.296 54.3326 32.296C55.5166 32.296 56.5566 32.04 57.4526 31.528C58.3486 31.016 59.0366 30.328 59.5166 29.464C60.0286 28.568 60.2846 27.592 60.2846 26.536V19.72C60.2846 18.728 59.8846 17.896 59.0846 17.224C58.3166 16.552 57.2606 16.216 55.9166 16.216C54.6366 16.216 53.5006 16.568 52.5086 17.272C51.5486 17.976 50.8446 18.904 50.3966 20.056L44.6366 17.32C45.1486 15.848 45.9646 14.584 47.0846 13.528C48.2046 12.472 49.5486 11.656 51.1166 11.08C52.6846 10.504 54.3966 10.216 56.2526 10.216C58.4606 10.216 60.4126 10.616 62.1086 11.416C63.8046 12.216 65.1166 13.336 66.0446 14.776C67.0046 16.184 67.4846 17.832 67.4846 19.72V37H60.7646V32.776L62.3966 32.488C61.6286 33.64 60.7806 34.6 59.8526 35.368C58.9246 36.104 57.8846 36.648 56.7326 37C55.5806 37.384 54.3006 37.576 52.8926 37.576ZM80.5043 37L70.1843 10.792H77.9603L85.1123 30.616H82.1363L89.2883 10.792H97.0643L86.7443 37H80.5043ZM112.389 37.576C109.605 37.576 107.189 36.968 105.141 35.752C103.093 34.504 101.509 32.84 100.389 30.76C99.269 28.68 98.709 26.376 98.709 23.848C98.709 21.224 99.285 18.888 100.437 16.84C101.621 14.792 103.205 13.176 105.189 11.992C107.173 10.808 109.413 10.216 111.909 10.216C113.989 10.216 115.829 10.552 117.429 11.224C119.029 11.864 120.373 12.776 121.461 13.96C122.581 15.144 123.429 16.52 124.005 18.088C124.581 19.624 124.869 21.304 124.869 23.128C124.869 23.64 124.837 24.152 124.773 24.664C124.741 25.144 124.661 25.56 124.533 25.912H104.901V20.632H120.453L117.045 23.128C117.365 21.752 117.349 20.536 116.997 19.48C116.645 18.392 116.021 17.544 115.125 16.936C114.261 16.296 113.189 15.976 111.909 15.976C110.661 15.976 109.589 16.28 108.693 16.888C107.797 17.496 107.125 18.392 106.677 19.576C106.229 20.76 106.053 22.2 106.149 23.896C106.021 25.368 106.197 26.664 106.677 27.784C107.157 28.904 107.893 29.784 108.885 30.424C109.877 31.032 111.077 31.336 112.485 31.336C113.765 31.336 114.853 31.08 115.749 30.568C116.677 30.056 117.397 29.352 117.909 28.456L123.669 31.192C123.157 32.472 122.341 33.592 121.221 34.552C120.133 35.512 118.837 36.264 117.333 36.808C115.829 37.32 114.181 37.576 112.389 37.576ZM129.109 37V0.663999H136.309V37H129.109ZM141.578 37V10.792H148.778V37H141.578ZM141.578 8.44V1.24H148.778V8.44H141.578ZM154.046 37V10.792H160.766V15.976L160.382 14.824C160.99 13.256 161.966 12.104 163.31 11.368C164.686 10.6 166.286 10.216 168.11 10.216C170.094 10.216 171.822 10.632 173.294 11.464C174.798 12.296 175.966 13.464 176.798 14.968C177.63 16.44 178.046 18.168 178.046 20.152V37H170.846V21.688C170.846 20.664 170.638 19.784 170.222 19.048C169.838 18.312 169.278 17.736 168.542 17.32C167.838 16.904 167.006 16.696 166.046 16.696C165.118 16.696 164.286 16.904 163.55 17.32C162.814 17.736 162.238 18.312 161.822 19.048C161.438 19.784 161.246 20.664 161.246 21.688V37H154.046Z" fill="#023373"/>
<path d="M180.669 37L193.485 1.24H199.053L211.869 37H206.829L203.901 28.6H188.637L185.709 37H180.669ZM190.125 24.28H202.413L195.597 4.648H196.941L190.125 24.28ZM211.431 47.56C211.143 47.56 210.791 47.544 210.375 47.512C209.959 47.48 209.623 47.432 209.367 47.368V43.336C210.007 43.432 210.647 43.48 211.287 43.48C212.599 43.48 213.687 43.112 214.551 42.376C215.415 41.64 215.847 40.52 215.847 39.016V11.128H220.311V39.016C220.311 40.872 219.927 42.424 219.159 43.672C218.391 44.952 217.335 45.912 215.991 46.552C214.647 47.224 213.127 47.56 211.431 47.56ZM215.847 7V1.24H220.311V7H215.847ZM234.821 37.576C233.125 37.576 231.621 37.272 230.309 36.664C229.029 36.024 228.021 35.16 227.285 34.072C226.549 32.952 226.181 31.672 226.181 30.232C226.181 28.856 226.469 27.624 227.045 26.536C227.653 25.416 228.581 24.472 229.829 23.704C231.109 22.936 232.709 22.392 234.629 22.072L244.229 20.488V24.232L235.637 25.672C233.973 25.96 232.757 26.488 231.989 27.256C231.253 28.024 230.885 28.968 230.885 30.088C230.885 31.144 231.301 32.024 232.133 32.728C232.997 33.432 234.069 33.784 235.349 33.784C236.981 33.784 238.389 33.448 239.573 32.776C240.789 32.072 241.733 31.128 242.405 29.944C243.109 28.76 243.461 27.448 243.461 26.008V19.432C243.461 18.024 242.933 16.888 241.877 16.024C240.853 15.128 239.493 14.68 237.797 14.68C236.325 14.68 235.013 15.064 233.861 15.832C232.741 16.568 231.909 17.56 231.365 18.808L227.477 16.792C227.957 15.608 228.725 14.552 229.781 13.624C230.837 12.664 232.069 11.912 233.477 11.368C234.885 10.824 236.357 10.552 237.893 10.552C239.877 10.552 241.621 10.936 243.125 11.704C244.629 12.44 245.797 13.48 246.629 14.824C247.493 16.136 247.925 17.672 247.925 19.432V37H243.557V32.104L244.373 32.392C243.829 33.416 243.093 34.312 242.165 35.08C241.237 35.848 240.149 36.456 238.901 36.904C237.653 37.352 236.293 37.576 234.821 37.576ZM256.671 37V31.24H261.327V37H256.671Z" fill="#1AA3D9"/>
</svg>
